<?xml version="1.0" encoding="iso-8859-1"?>
<!-- Generator: Adobe Illustrator 18.0.0, SVG Export Plug-In . SVG Version: 6.00 Build 0)  -->
<!DOCTYPE svg PUBLIC "-//W3C//DTD SVG 1.1//EN" "http://www.w3.org/Graphics/SVG/1.1/DTD/svg11.dtd">
<svg version="1.1" id="Capa_1" xmlns="http://www.w3.org/2000/svg" xmlns:xlink="http://www.w3.org/1999/xlink" x="0px" y="0px"
	 viewBox="0 0 512 512" style="enable-background:new 0 0 512 512;" xml:space="preserve">
<g>
	<path d="M224,432c0,8.828-7.18,16-16,16s-16-7.172-16-16c0-17.672-14.328-32-32-32s-32,14.328-32,32
		c0,41.898,32.492,75.992,73.543,79.344c2.086,0.43,4.246,0.656,6.457,0.656s4.371-0.227,6.457-0.656
		C255.508,507.992,288,473.898,288,432V288h-64V432z"/>
	<path d="M288,34.727V32c0-17.672-14.328-32-32-32s-32,14.328-32,32v2.727C124.484,50.195,48,136.219,48,240c0,8.844,7.164,16,16,16
		s16-7.156,16-16c0-4.109,12.57-16,32-16s32,11.891,32,16c0,8.844,7.164,16,16,16s16-7.156,16-16c0-4.109,12.57-16,32-16
		s32,11.891,32,16c0,8.844,7.164,16,16,16s16-7.156,16-16c0-4.109,12.57-16,32-16s32,11.891,32,16c0,8.844,7.164,16,16,16
		s16-7.156,16-16c0-4.109,12.57-16,32-16s32,11.891,32,16c0,8.844,7.164,16,16,16s16-7.156,16-16
		C464,136.219,387.516,50.195,288,34.727z"/>
</g>
<g>
</g>
<g>
</g>
<g>
</g>
<g>
</g>
<g>
</g>
<g>
</g>
<g>
</g>
<g>
</g>
<g>
</g>
<g>
</g>
<g>
</g>
<g>
</g>
<g>
</g>
<g>
</g>
<g>
</g>
</svg>
